<svg width="74" height="74" viewBox="0 0 74 74" fill="none" xmlns="http://www.w3.org/2000/svg">
<g clip-path="url(#clip0_13979_730)">
<path d="M57.2285 45.4051C56.0899 47.9038 55.5724 49.0491 54.1232 51.2355C52.1565 54.3589 49.2582 58.1069 45.7389 58.2111C42.6336 58.2111 41.8055 56.1288 37.5616 56.2329C33.3177 56.2329 32.4896 58.3152 29.2808 58.2111C25.7615 58.2111 23.0702 54.6712 21.1035 51.6519C15.514 43.0105 14.8929 32.9115 18.4123 27.6018C20.8965 23.7496 24.7264 21.5632 28.4527 21.5632C32.1791 21.5632 34.5598 23.6455 37.5616 23.6455C40.5634 23.6455 42.3231 21.5632 46.6705 21.5632C49.8793 21.5632 53.3986 23.3331 55.7794 26.4565C47.8091 30.7252 49.1547 42.2817 57.2285 45.4051ZM43.4617 18.0233C45.0143 16.0452 46.2565 13.13 45.7389 10.2148C43.1512 10.4231 40.2529 11.9848 38.4932 14.1711C36.9406 16.1493 35.5949 18.9604 36.1125 21.7714C38.9072 21.8755 41.8055 20.1056 43.4617 18.0233Z" fill="white"/>
</g>
<defs>
<clipPath id="clip0_13979_730">
<rect width="73.6955" height="73.6955" fill="white" transform="translate(0 0.0866699)"/>
</clipPath>
</defs>
</svg>
