<svg width="134" height="40" viewBox="0 0 134 40" fill="none" xmlns="http://www.w3.org/2000/svg">
<path d="M33.9231 11.0504C32.6275 14.641 31.1902 18.1778 29.6113 21.6608C28.6004 23.8882 27.5321 26.1378 26.4062 28.4098C24.7458 31.7569 24.1403 32.2702 20.9849 32.2702H17.8234C15.3891 32.2702 14.8454 31.7235 14.817 29.3501L14.7298 21.8637H14.6903L12.2844 28.1715C10.8796 31.8553 10.5763 32.2702 7.13488 32.2702H3.25831C1.745 32.2702 1.01268 31.121 0.746935 28.3398C0.55084 26.2876 0.379753 24.1488 0.233697 21.9235C-0.00820558 18.3044 -0.0623459 14.6751 0.0714389 11.0504H8.33376C8.1708 13.3454 8.06261 15.5187 8.00919 17.5702C7.95577 19.6218 7.95577 21.6869 8.00919 23.7655H8.04977L11.8391 13.7667C12.7956 11.2421 13.0958 11.0494 15.9196 11.0494H18.083C20.7364 11.0494 21.2212 11.2736 21.2212 15.0386L21.3308 23.7614H21.3713C22.2903 21.4935 23.0936 19.3408 23.7812 17.3035C24.4689 15.2661 25.1235 13.1801 25.7449 11.0453L33.9231 11.0504ZM42.2777 32.2702H34.0153L36.9314 17.3684H34.3389L36.5541 11.0514H42.1204C46.279 11.0514 46.3622 11.2796 45.3296 16.5894L42.2777 32.2702ZM68.9776 16.8014C68.9776 17.2335 68.9641 17.6791 68.937 18.1382C68.9081 18.6163 68.8402 19.0912 68.7342 19.5582L66.2695 32.2702H58.0081L60.3166 20.4863C60.388 20.145 60.4422 19.8004 60.4789 19.4537C60.5053 19.1711 60.5188 18.9216 60.5195 18.7052C60.5195 17.653 60.1686 17.1266 59.4667 17.1259C59.0063 17.1463 58.5652 17.317 58.211 17.6118C57.7398 17.9773 57.329 18.4148 56.9939 18.9081C56.5928 19.4884 56.2472 20.1051 55.9613 20.75C55.6537 21.4305 55.4293 22.1457 55.2929 22.88L53.4672 32.2742H45.2069L49.3371 11.0545H55.5333L55.7362 13.5658C56.526 12.5887 57.5127 11.7887 58.6319 11.2178C59.8563 10.6057 61.2109 10.2998 62.5795 10.3262C63.4405 10.27 64.3039 10.388 65.1182 10.6733C65.9324 10.9586 66.6807 11.4053 67.3182 11.9866C67.9033 12.6371 68.3518 13.3984 68.637 14.2255C68.9222 15.0526 69.0374 15.9286 68.9776 16.8014ZM92.8436 16.8014C92.8436 17.2335 92.8301 17.6791 92.8031 18.1382C92.7728 18.6161 92.705 19.0909 92.6002 19.5582L90.1304 32.2702H81.8701L84.1776 20.4863C84.249 20.145 84.3031 19.8004 84.3399 19.4537C84.3673 19.1708 84.3794 18.9212 84.3794 18.7052C84.3794 17.653 84.0288 17.1266 83.3276 17.1259C82.8669 17.1463 82.4255 17.317 82.0709 17.6118C81.5995 17.9771 81.1887 18.4146 80.8538 18.9081C80.4523 19.4883 80.1063 20.105 79.8202 20.75C79.5124 21.4304 79.288 22.1456 79.1518 22.88L77.3261 32.2742H69.0669L73.196 11.0545H79.3912L79.5941 13.5658C80.3832 12.5884 81.3696 11.7883 82.4888 11.2178C83.7132 10.6057 85.0678 10.2998 86.4364 10.3262C87.2972 10.2699 88.1605 10.3879 88.9746 10.6732C89.7887 10.9586 90.5368 11.4053 91.1741 11.9866C91.761 12.6362 92.2112 13.3972 92.498 14.2244C92.7848 15.0515 92.9023 15.9279 92.8436 16.8014ZM108.045 17.1655C108.046 16.9963 108.011 16.8287 107.941 16.6746C107.871 16.5206 107.768 16.3838 107.639 16.274C107.346 16.0236 106.97 15.8935 106.585 15.9098C106.155 15.8939 105.727 15.977 105.333 16.1529C104.94 16.3288 104.593 16.5926 104.318 16.9241C103.742 17.6158 103.339 18.4351 103.144 19.3138C103.931 19.3281 104.718 19.2601 105.492 19.1109C106.012 19.0112 106.517 18.8406 106.991 18.6038C107.316 18.4484 107.596 18.2115 107.802 17.9161C107.953 17.6944 108.038 17.4338 108.045 17.1655ZM115.819 16.4778C115.82 16.8151 115.794 17.1519 115.741 17.485L115.66 17.8998C115.54 18.4185 115.356 18.9201 115.111 19.3929C114.563 20.3928 113.768 21.2363 112.803 21.8434C111.511 22.6549 110.095 23.2497 108.612 23.6042C106.529 24.1102 104.397 24.3823 102.254 24.4156C102.202 24.6689 102.174 24.9268 102.173 25.1854C102.148 25.4581 102.204 25.732 102.334 25.9732C102.463 26.2144 102.66 26.4123 102.901 26.5426C103.7 26.8539 104.557 26.9851 105.413 26.927C105.981 26.9239 106.548 26.89 107.113 26.8255C107.733 26.7579 108.354 26.6771 108.975 26.5831C110.054 26.3969 111.116 26.1256 112.152 25.7717L113.027 31.4253C111.462 31.9918 109.848 32.4102 108.206 32.6749C107.45 32.7824 106.694 32.8632 105.938 32.9173C105.182 32.9714 104.453 32.9984 103.751 32.9984C102.312 33.017 100.874 32.8954 99.4588 32.6353C98.367 32.4433 97.3305 32.0147 96.422 31.3796C95.6035 30.7734 94.9776 29.9436 94.6196 28.99C94.1957 27.7951 93.9966 26.532 94.0323 25.2646C94.0386 24.214 94.12 23.1653 94.2758 22.1264C94.4432 20.9863 94.7284 19.8666 95.1268 18.7853C95.5355 17.6707 96.0654 16.6044 96.707 15.6055C97.3649 14.5818 98.1854 13.6722 99.1362 12.9126C100.17 12.096 101.334 11.4596 102.579 11.0301C105.419 10.1513 108.45 10.088 111.325 10.8475C112.297 11.1287 113.205 11.5965 113.998 12.2249C114.639 12.741 115.129 13.419 115.418 14.1886C115.686 14.9222 115.821 15.6971 115.819 16.4778ZM131.207 18.5429C130.905 18.4734 130.601 18.4195 130.294 18.3816C129.938 18.3302 129.58 18.3031 129.221 18.3005C128.743 18.3134 128.276 18.4397 127.857 18.669C127.438 18.8983 127.08 19.2239 126.812 19.6191C126.01 20.7719 125.489 22.0964 125.29 23.4865L123.591 32.2732H115.33C117.246 22.4246 117.069 23.3475 119.46 11.0534H125.657L125.859 13.8935C126.627 12.88 127.533 11.9801 128.552 11.2208C129.44 10.6151 130.496 10.3033 131.57 10.3293C132.111 10.3293 132.529 10.3431 132.826 10.3709C133.046 10.3829 133.263 10.4238 133.473 10.4926L131.207 18.5429Z" fill="white"/>
<path d="M48.0283 5.09729C48.073 5.77167 47.969 6.44766 47.7237 7.07741C47.4783 7.70715 47.0975 8.27528 46.6083 8.74162C45.6475 9.58507 44.4033 10.034 43.1253 9.99829C42.5326 10.0308 41.9393 9.94547 41.3798 9.74735C40.8203 9.54924 40.3056 9.24222 39.8654 8.84404C39.4695 8.45891 39.1586 7.99516 38.9529 7.48262C38.7471 6.97008 38.6509 6.42011 38.6705 5.86815C38.6576 5.1542 38.7887 4.44497 39.056 3.78279C39.2912 3.20464 39.6506 2.68525 40.1088 2.26137C40.5624 1.85133 41.0925 1.53491 41.6687 1.33026C42.2788 1.11173 42.9225 1.00221 43.5705 1.0067C44.1632 0.9743 44.7564 1.05962 45.3159 1.25773C45.8755 1.45585 46.3902 1.76282 46.8304 2.16095C47.2237 2.5395 47.5333 2.99632 47.7391 3.50192C47.9449 4.00752 48.0424 4.55068 48.0253 5.0963" fill="white"/>
</svg>
