<svg width="184" height="77" viewBox="0 0 184 77" fill="none" xmlns="http://www.w3.org/2000/svg">
<g clip-path="url(#clip0_1094_2063)">
<path d="M29.3193 24H24.3506V28.3067H22.0039V33.0727H24.3506V38.6658C24.3506 43.0603 27.7446 45.8569 31.9411 45.8569H34.8764V41.2746H31.9259C31.2366 41.2746 30.5755 40.9883 30.0881 40.4789C29.6007 39.9694 29.3269 39.2784 29.3269 38.5579V33.0727H32.5909C33.209 33.0489 33.794 32.7745 34.222 32.3077C34.65 31.8409 34.8875 31.2184 34.8841 30.5718V28.3186H29.3193V24ZM57.8964 38.7617C57.8964 39.4822 57.6226 40.1731 57.1352 40.6826C56.6478 41.1921 55.9867 41.4783 55.2974 41.4783C54.6081 41.4783 53.9471 41.1921 53.4597 40.6826C52.9723 40.1731 52.6985 39.4822 52.6985 38.7617V30.8155C52.6985 30.4854 52.6361 30.1585 52.515 29.8536C52.3939 29.5487 52.2164 29.2717 51.9927 29.0387C51.7691 28.8056 51.5035 28.6209 51.2115 28.4953C50.9194 28.3697 50.6064 28.3056 50.2906 28.3067H47.7031V38.0825C47.7031 42.4771 49.9963 46.0446 55.2936 46.0446C60.5909 46.0446 62.8879 42.4811 62.8879 38.0825V28.3067H57.9193V38.7617M80.0869 37.5951C80.0525 32.1659 77.2319 27.8952 71.9843 27.8952C67.4781 27.8952 63.8434 31.6984 63.8434 36.9399C63.8434 42.5929 67.1494 45.9408 72.0225 46.0406C73.5279 46.0377 75.0047 45.6101 76.2969 44.8029C77.5892 43.9957 78.649 42.8388 79.3646 41.4543L74.8049 40.2079C74.4854 40.6753 74.0613 41.054 73.5697 41.311C73.0781 41.5679 72.5338 41.6953 71.9843 41.682C70.207 41.682 68.77 40.3477 68.7203 38.7337H80.0831C80.0831 38.478 80.0831 37.8628 80.0831 37.5951M68.6859 35.1621C68.7356 33.5641 70.1688 32.2258 71.9499 32.2258C73.7309 32.2258 75.1986 33.5322 75.2215 35.1621H68.6859ZM43.625 28.3067H42.9485C42.0409 28.3067 41.1422 28.4936 40.3038 28.8569C39.4654 29.2202 38.7037 29.7527 38.0623 30.4239C37.4209 31.0951 36.9123 31.8918 36.5657 32.7686C36.219 33.6454 36.0411 34.585 36.0422 35.5337V45.8369H41.0108V35.7894C41.0097 35.4316 41.0765 35.0772 41.2073 34.7466C41.338 34.416 41.5301 34.1158 41.7724 33.8632C42.0148 33.6106 42.3026 33.4107 42.6192 33.2751C42.9359 33.1394 43.2751 33.0706 43.6174 33.0727H46.5297V28.3067H43.6174H43.625Z" fill="white"/>
<path d="M115.895 40.7112C115.576 41.1677 115.158 41.5391 114.675 41.7951C114.193 42.0511 113.66 42.1845 113.118 42.1845C112.577 42.1845 112.044 42.0511 111.562 41.7951C111.079 41.5391 110.661 41.1677 110.342 40.7112C109.665 39.7804 109.291 38.2263 109.291 36.8081C109.248 35.507 109.617 34.2276 110.342 33.1686C110.652 32.6989 111.067 32.3149 111.551 32.0497C112.034 31.7845 112.572 31.646 113.118 31.646C113.665 31.646 114.203 31.7845 114.686 32.0497C115.17 32.3149 115.585 32.6989 115.895 33.1686C116.615 34.2298 116.986 35.5074 116.95 36.8081C116.95 38.2223 116.568 39.7804 115.895 40.7112ZM113.128 27.8472C112.138 27.8576 111.162 28.0981 110.271 28.5514C109.381 29.0047 108.598 29.6593 107.98 30.4679C106.575 32.2531 105.822 34.5011 105.855 36.812C105.855 39.249 106.665 41.7899 107.98 43.4039C108.587 44.2211 109.365 44.8825 110.255 45.3374C111.144 45.7924 112.121 46.0289 113.111 46.0289C114.101 46.0289 115.078 45.7924 115.967 45.3374C116.856 44.8825 117.634 44.2211 118.242 43.4039C119.564 41.8058 120.367 39.249 120.367 36.812C120.397 34.5015 119.644 32.2545 118.242 30.4679C117.625 29.6649 116.847 29.0138 115.963 28.5608C115.078 28.1079 114.109 27.8642 113.124 27.8472" fill="white"/>
<path d="M128.806 27.8433C127.988 27.8683 127.186 28.0921 126.465 28.4971C125.744 28.902 125.123 29.477 124.651 30.1764V30.1565C124.655 29.6048 124.477 29.0686 124.147 28.6383C124 28.4431 123.813 28.2842 123.6 28.1731C123.388 28.0619 123.154 28.0011 122.916 27.9952C122.678 28.0005 122.444 28.0627 122.232 28.1769C122.02 28.2911 121.836 28.4544 121.693 28.6543C121.376 29.0865 121.204 29.6158 121.204 30.1605V43.7955C121.197 44.3345 121.38 44.8574 121.716 45.2657C121.869 45.4512 122.057 45.6014 122.268 45.7066C122.479 45.8119 122.709 45.8699 122.943 45.8769C123.173 45.8695 123.399 45.8112 123.606 45.7058C123.813 45.6004 123.996 45.4504 124.143 45.2657C124.478 44.8572 124.658 44.3338 124.648 43.7955V35.9812C124.623 34.9019 124.925 33.842 125.511 32.953C125.792 32.5422 126.165 32.2088 126.596 31.9813C127.027 31.7537 127.505 31.6389 127.988 31.6466C128.443 31.6299 128.894 31.7327 129.3 31.9456C129.707 32.1585 130.056 32.4746 130.316 32.8651C130.89 33.7783 131.176 34.8571 131.134 35.9493V43.7915C131.115 44.3326 131.299 44.8599 131.646 45.2617C131.796 45.4476 131.983 45.5981 132.193 45.7034C132.403 45.8088 132.632 45.8665 132.865 45.873C133.095 45.867 133.322 45.8094 133.529 45.7039C133.736 45.5985 133.919 45.4476 134.065 45.2617C134.395 44.8504 134.573 44.3285 134.566 43.7915V35.8214C134.566 33.5802 134.05 31.5747 133.037 30.1405C132.567 29.4177 131.932 28.829 131.189 28.4279C130.446 28.0268 129.619 27.8258 128.783 27.8433" fill="white"/>
<path d="M142.577 31.4668C143.026 31.4746 143.469 31.5769 143.879 31.7677C144.29 31.9585 144.659 32.234 144.965 32.5775C145.56 33.2721 145.948 34.1329 146.081 35.0544H139.068C139.204 34.1243 139.588 33.2533 140.176 32.5415C140.484 32.2006 140.856 31.9293 141.268 31.7445C141.68 31.5596 142.124 31.4651 142.573 31.4668M148.661 40.6554H148.638C148.519 40.446 148.352 40.2707 148.151 40.1453C147.951 40.0198 147.725 39.948 147.492 39.9363C147.318 39.9332 147.145 39.9703 146.987 40.0449C146.828 40.1195 146.687 40.2297 146.574 40.3678C145.535 41.6023 144.251 42.3653 142.752 42.3653C142.258 42.3654 141.769 42.2589 141.316 42.0527C140.863 41.8465 140.456 41.5449 140.119 41.1668C139.456 40.3078 139.056 39.2592 138.972 38.1585H148.222C148.564 38.1553 148.892 38.0119 149.135 37.759C149.402 37.4712 149.55 37.0853 149.548 36.6844C149.59 34.4026 148.893 32.1729 147.572 30.3562C146.977 29.5651 146.219 28.9249 145.354 28.4835C144.489 28.0421 143.539 27.811 142.577 27.8074C141.592 27.827 140.624 28.0756 139.743 28.5351C138.861 28.9946 138.089 29.6536 137.482 30.4641C136.109 32.2635 135.377 34.5066 135.414 36.8082C135.414 39.2612 136.221 41.786 137.528 43.4C138.151 44.2032 138.936 44.8537 139.826 45.3058C140.716 45.7579 141.69 46.0005 142.68 46.0168C143.787 45.9995 144.878 45.7309 145.877 45.2294C146.875 44.7279 147.758 44.0056 148.462 43.1124V43.0804C148.765 42.6879 148.936 42.2021 148.948 41.6981C148.937 41.3411 148.846 40.9919 148.68 40.6794" fill="white"/>
<path d="M162 30.2083C162.015 29.8389 161.928 29.4728 161.748 29.1544C161.568 28.836 161.304 28.579 160.987 28.4146C160.832 28.3266 160.659 28.2774 160.483 28.2708C160.158 28.2843 159.846 28.4037 159.589 28.6121C159.333 28.8206 159.146 29.1078 159.053 29.4333L155.522 39.2331L151.929 29.4133C151.832 29.0879 151.64 28.8026 151.379 28.5981C151.119 28.3937 150.803 28.2805 150.477 28.2747C150.268 28.2791 150.063 28.3281 149.873 28.4186C149.569 28.6034 149.319 28.8707 149.15 29.1923C148.98 29.5138 148.897 29.8774 148.91 30.2443C148.915 30.3664 148.936 30.4872 148.971 30.6039C149.097 31.0873 149.429 32.11 149.873 33.3644C151.134 37.0039 153.271 42.6809 153.695 43.8993C152.758 46.3163 151.241 48.2939 149.173 49.4525C148.902 49.6081 148.672 49.8302 148.501 50.0996C148.311 50.4109 148.213 50.7734 148.218 51.1424C148.213 51.6053 148.365 52.055 148.646 52.4128C148.763 52.587 148.917 52.7305 149.096 52.8324C149.275 52.9342 149.474 52.9916 149.678 53.0001C149.876 52.981 150.069 52.9198 150.244 52.8203C153.412 51.3181 155.633 48.198 156.932 44.5785L161.855 30.9954C161.956 30.7427 162.001 30.4698 161.989 30.1964" fill="white"/>
<path d="M99.7166 27.8353C98.7596 27.8516 97.8243 28.136 97.0082 28.6588C96.1921 29.1816 95.5251 29.9236 95.0767 30.8076C94.7248 30.0117 94.2016 29.3116 93.5479 28.7621C92.775 28.1452 91.8257 27.8186 90.8534 27.8353C89.3246 27.8353 88.2391 28.7621 87.3677 30.1124C87.3759 29.5795 87.21 29.0595 86.8976 28.6383C86.7618 28.4401 86.5836 28.2777 86.3773 28.164C86.171 28.0503 85.9422 27.9883 85.709 27.9831C85.4575 27.9865 85.2098 28.0468 84.9828 28.1599C84.7558 28.273 84.555 28.4362 84.3942 28.6383C84.0888 29.0764 83.9278 29.6064 83.9356 30.1484V43.7315C83.9308 44.2657 84.0888 44.7876 84.3866 45.2217C84.5384 45.4172 84.7293 45.5757 84.9458 45.6861C85.1623 45.7965 85.3993 45.8562 85.6402 45.8609C85.882 45.8584 86.1202 45.7997 86.3377 45.6892C86.5552 45.5786 86.7464 45.419 86.8976 45.2217C87.2189 44.7988 87.388 44.2714 87.3754 43.7315V35.9812C87.3754 34.8066 87.4098 33.724 87.8837 32.9369C88.1165 32.5404 88.444 32.214 88.834 31.9899C89.224 31.7657 89.6631 31.6515 90.1081 31.6585C90.5263 31.641 90.9411 31.7433 91.3076 31.9546C91.6741 32.1659 91.9783 32.478 92.1873 32.857C92.6306 33.5881 92.7682 34.6748 92.7682 35.9212V43.7315C92.7682 44.8621 93.4676 45.8609 94.3849 45.8609C94.6284 45.8551 94.8678 45.795 95.0873 45.6848C95.3067 45.5746 95.5012 45.4167 95.6577 45.2217C95.9708 44.7927 96.1461 44.271 96.1583 43.7315V35.8054C96.108 34.7821 96.3516 33.7665 96.8578 32.889C97.0915 32.5063 97.4152 32.1927 97.798 31.978C98.1807 31.7633 98.6097 31.6547 99.044 31.6625C99.4622 31.6449 99.877 31.7473 100.243 31.9586C100.61 32.1699 100.914 32.482 101.123 32.861C101.559 33.5921 101.574 34.6788 101.574 35.9252V43.7355C101.565 44.2728 101.73 44.7976 102.04 45.2257C102.185 45.4229 102.37 45.583 102.583 45.6938C102.796 45.8045 103.03 45.8631 103.267 45.8649C103.511 45.8586 103.75 45.7983 103.969 45.6881C104.189 45.5779 104.383 45.4203 104.54 45.2257C104.859 44.8019 105.027 44.2748 105.014 43.7355V35.7055C105.014 33.4283 104.632 31.4907 103.749 30.0885C103.337 29.364 102.744 28.7705 102.033 28.3721C101.323 27.9737 100.522 27.7853 99.7166 27.8273" fill="white"/>
</g>
<defs>
<clipPath id="clip0_1094_2063">
<rect width="140" height="29" fill="white" transform="translate(22 24)"/>
</clipPath>
</defs>
</svg>
