<svg width="184" height="77" viewBox="0 0 184 77" fill="none" xmlns="http://www.w3.org/2000/svg">
<path d="M134.443 25.4374C134.326 25.3203 134.356 25.0275 134.502 24.9397C135.058 24.969 135.966 24.9983 136.581 24.9983C137.137 24.9983 138.162 24.969 138.864 24.9397C139.04 24.9983 139.011 25.291 138.894 25.4374L138.425 25.4667C138.015 25.496 137.752 25.6131 137.752 25.818C137.752 26.0523 138.162 27.077 138.806 28.5116C139.948 31.0295 141.119 33.5474 142.29 36.0361C142.788 35.0406 143.315 33.8988 143.842 32.7569C144.017 32.3763 144.164 32.025 144.164 31.9371C144.164 31.8493 144.105 31.6444 144.017 31.4101C143.315 29.7999 142.553 28.1896 141.792 26.5793C141.499 25.9644 141.177 25.5253 140.504 25.4667L140.006 25.4374C139.86 25.291 139.889 25.0275 140.036 24.9397C140.621 24.969 141.382 24.9983 142.202 24.9983C143.198 24.9983 143.959 24.969 144.427 24.9397C144.574 24.9983 144.574 25.2618 144.457 25.4374L143.93 25.4667C143.139 25.5253 143.11 25.6717 143.52 26.5793C143.93 27.5747 144.515 28.8337 145.071 30.0926C145.452 29.3021 145.803 28.5409 146.272 27.4576C147.004 25.7302 146.887 25.5253 146.242 25.496L145.628 25.4667C145.481 25.2618 145.54 25.0568 145.657 24.969C146.213 24.9983 146.799 25.0275 147.56 25.0275C148.233 25.0275 149.024 24.9983 149.492 24.969C149.639 25.0275 149.639 25.291 149.522 25.4667L148.936 25.496C148.087 25.5545 147.736 26.4622 147.296 27.2819C146.887 28.0139 146.038 29.7706 145.715 30.4732C145.628 30.6782 145.54 30.8831 145.54 30.9417C145.54 31.0295 145.569 31.1759 145.686 31.4394C146.36 32.9912 147.062 34.5136 147.736 36.0361C148.35 34.6307 148.965 33.2254 149.551 31.7908C149.961 30.8246 151.015 28.131 151.161 27.7797C151.425 27.0477 151.776 26.1987 151.776 25.9351C151.776 25.6424 151.542 25.496 151.103 25.4667L150.517 25.4374C150.341 25.2618 150.371 25.0275 150.546 24.9397C151.308 24.969 151.864 24.9983 152.479 24.9983C153.24 24.9983 153.825 24.969 154.352 24.9397C154.528 24.9983 154.528 25.2618 154.382 25.4374L154.001 25.4667C153.006 25.5545 152.801 26.1694 151.6 28.9801L150.136 32.3763C149.258 34.4258 148.438 36.4167 147.619 38.554C147.56 38.5833 147.472 38.6125 147.384 38.6125C147.296 38.6125 147.179 38.5833 147.092 38.554C146.447 36.768 145.276 34.2501 144.661 32.8155C143.93 34.2794 142.729 36.8559 142.144 38.554C142.085 38.5833 141.997 38.6125 141.909 38.6125C141.821 38.6125 141.704 38.5833 141.617 38.554C141.265 37.7049 140.475 35.8897 140.211 35.3041C138.923 32.4934 137.664 29.712 136.346 26.9013C135.966 26.0815 135.732 25.5253 134.883 25.4374H134.443Z" fill="white"/>
<path d="M20.171 49.475V39.1399L25.3825 44.3514V49.475H20.171ZM14.2862 28.1313V33.255L19.4977 38.4665V28.1313H14.2862V28.1313Z" fill="white"/>
<path d="M9.16251 39.1397H19.4977L14.2862 44.3512H9.16251V39.1397ZM30.5062 33.2256H25.3825L20.171 38.4371H30.5062V33.2256Z" fill="white"/>
<path d="M41.8662 35.0113C41.8662 35.7432 41.8955 36.7679 42.2761 37.2071C42.6567 37.6756 43.2716 37.7634 43.8571 37.7634C45.6431 37.7634 47.0192 36.9436 47.0192 34.9527C47.0192 33.3717 46.1994 31.4979 43.0081 31.4979C41.9248 31.4979 41.8369 31.615 41.8369 32.0249V35.0113H41.8662ZM41.8662 30.3268C41.8662 30.8831 41.8955 30.9416 42.9202 30.8831C44.9697 30.7952 46.0823 30.2097 46.0823 28.3066C46.0823 26.3157 44.6184 25.5837 43.0666 25.5837C42.6274 25.5837 42.3347 25.613 42.1297 25.7009C41.9248 25.7594 41.8369 25.8472 41.8369 26.2279V30.3268H41.8662ZM40.1974 27.6332C40.1974 26.14 40.1095 25.7594 39.2019 25.6716L38.5578 25.613C38.4114 25.4959 38.4114 25.2031 38.5871 25.1153C39.6704 25.0275 41.0464 24.9689 42.9202 24.9689C44.1792 24.9689 45.4089 25.0567 46.3165 25.5252C47.1948 25.9351 47.8389 26.7549 47.8389 28.0431C47.8389 29.507 46.9899 30.2389 45.7895 30.7952C45.7895 31.0002 45.9651 31.0587 46.1701 31.088C47.2534 31.293 48.8637 32.2884 48.8637 34.455C48.8637 36.7972 47.1363 38.3782 43.5058 38.3782C42.9202 38.3782 41.9248 38.3197 41.0757 38.3197C40.1974 38.3197 39.4947 38.349 38.7627 38.3782C38.6456 38.3197 38.6164 37.9976 38.7335 37.8805L39.0848 37.822C40.1388 37.6463 40.1974 37.4121 40.1974 35.304V27.6332V27.6332ZM53.0211 37.7048C53.431 37.7048 54.0459 37.4121 54.2508 37.2071C54.4851 36.9729 54.4851 36.6801 54.5143 36.2702L54.5436 35.0698C54.5436 34.8356 54.4558 34.8063 54.3387 34.8063C54.2216 34.8063 53.8702 34.8942 53.5189 35.0113C52.3185 35.4212 51.7329 35.7139 51.7329 36.5044C51.7329 36.8265 51.9671 37.7048 53.0211 37.7048ZM54.2508 34.1622C54.5436 34.0744 54.6022 33.8694 54.6022 33.5766L54.6314 32.6397C54.6607 31.9078 54.3972 30.8831 53.1675 30.8831C52.6113 30.8831 51.9086 31.1758 51.8793 31.7907C51.85 32.1127 51.85 32.347 51.6744 32.4641C51.3816 32.6983 50.8253 32.8447 50.5325 32.8447C50.3568 32.8447 50.2397 32.7569 50.2397 32.5519C50.2397 31.4979 52.5234 30.0633 53.9873 30.0633C55.4512 30.0633 56.1539 30.9123 56.0953 32.4348L55.9782 35.9482C55.949 36.8851 56.1246 37.7048 56.9151 37.7048C57.1201 37.7048 57.2957 37.6463 57.4129 37.5877C57.5007 37.5292 57.6178 37.4413 57.6764 37.4413C57.7642 37.4413 57.8228 37.5585 57.8228 37.7048C57.8228 37.7927 57.1201 38.5832 56.1246 38.5832C55.6269 38.5832 55.1584 38.4075 54.8071 37.9683C54.7193 37.8512 54.6022 37.6756 54.4851 37.6756C54.3387 37.6756 54.1044 37.8512 53.6945 38.0855C53.2554 38.3197 52.8162 38.5832 52.2306 38.5832C51.6451 38.5832 51.1766 38.4368 50.8253 38.1147C50.4447 37.7634 50.2105 37.2657 50.2105 36.7094C50.2105 35.9189 50.5911 35.4504 51.8793 35.0113L54.2508 34.1622ZM57.7935 42.0966C57.7935 41.5403 58.1448 41.2768 58.6133 41.2768H58.9939C59.3159 41.2768 59.5209 41.1304 59.6673 40.9254C60.2528 40.0178 60.4871 39.5494 60.6627 39.0809C60.7213 38.9345 60.8677 38.4953 60.8677 38.2026C60.8677 37.7927 60.7798 37.5585 60.5163 36.7972L58.9353 32.4934C58.584 31.5565 58.4376 31.0587 57.7349 30.9123L57.2372 30.8245C57.1201 30.7367 57.1494 30.3853 57.2957 30.3268C57.9399 30.3561 58.5547 30.3853 59.1988 30.3853C59.7551 30.3853 60.3114 30.3561 60.9555 30.3268C61.1019 30.3853 61.1312 30.7367 60.9848 30.8245L60.4871 30.9123C60.1943 30.9709 60.0479 31.0295 60.0479 31.1758C60.0479 31.4101 60.5163 32.7276 60.6334 33.0789L61.2776 34.9234C61.3947 35.2455 61.7753 36.2995 61.8631 36.3581C61.9217 36.3288 62.2437 35.6847 62.5951 34.8649L63.2685 33.2839C63.7076 32.2299 63.9711 31.4979 63.9711 31.2637C63.9711 31.1173 63.854 30.9709 63.4734 30.9123L62.8586 30.8245C62.7122 30.7367 62.7415 30.3853 62.8878 30.3268C63.532 30.3561 64.1468 30.3853 64.6738 30.3853C65.1715 30.3853 65.64 30.3561 66.1963 30.3268C66.3427 30.4146 66.3719 30.7074 66.2255 30.8245L65.8742 30.8831C65.2008 31.0002 64.8495 31.5857 64.1468 33.0204L63.005 35.3333C62.3316 36.6801 60.8677 39.8129 59.8722 42.0087C59.5209 42.7699 59.0524 42.9456 58.584 42.9456C58.0863 42.9456 57.7935 42.5943 57.7935 42.0966ZM68.3043 36.0653C68.3043 37.5292 68.3336 37.7048 69.0655 37.822L69.534 37.8805C69.6804 37.9684 69.6218 38.3197 69.5047 38.3782C68.8313 38.349 68.2457 38.3197 67.5431 38.3197C66.8111 38.3197 66.2255 38.349 65.6107 38.3782C65.4643 38.3197 65.435 37.9684 65.5814 37.8805L66.0499 37.822C66.7818 37.7341 66.8111 37.5292 66.8111 36.0653V26.9598C66.8111 25.7594 66.7818 25.6423 66.1963 25.291L65.9913 25.1738C65.9035 25.1153 65.9035 24.8225 65.9913 24.764C66.489 24.5883 67.4552 24.2955 68.1579 23.9149C68.2457 23.9149 68.3043 23.9442 68.3628 24.032C68.3336 24.6468 68.3043 25.6423 68.3043 26.5206V36.0653ZM74.277 30.7074C72.9595 30.7074 71.964 31.9664 71.964 34.1915C71.964 36.036 72.7838 37.9976 74.5698 37.9976C76.3557 37.9976 76.8828 36.1531 76.8828 34.6014C76.8828 32.874 76.1801 30.7074 74.277 30.7074ZM78.6102 34.2793C78.6102 36.7972 76.8828 38.6125 74.3648 38.6125C72.0519 38.6125 70.2366 36.9729 70.2366 34.455C70.2366 31.9078 72.1397 30.0926 74.5405 30.0926C76.7656 30.0926 78.6102 31.7907 78.6102 34.2793ZM80.6303 32.7276C80.6303 31.9371 80.6303 31.8492 80.0741 31.4686L79.8984 31.3515C79.8106 31.2637 79.8106 31.0587 79.9277 31.0002C80.3961 30.8245 81.4501 30.2975 81.9479 30.0047C82.0357 30.034 82.1235 30.0633 82.1235 30.1511V31.3222C82.1235 31.4101 82.1528 31.4686 82.1821 31.4979C82.8847 30.9123 83.646 30.2682 84.3779 30.2682C84.8757 30.2682 85.2856 30.5903 85.2856 31.0587C85.2856 31.7321 84.7585 31.9956 84.4365 31.9956C84.2315 31.9956 84.1437 31.9371 83.9973 31.8492C83.7045 31.6443 83.3825 31.5272 83.119 31.5272C82.7969 31.5272 82.5627 31.7028 82.387 31.9371C82.1821 32.2299 82.1235 32.8154 82.1235 33.4888L82.1528 36.2409C82.1528 37.7048 82.2114 37.9391 82.9726 37.9976L83.7045 38.0562C83.8509 38.144 83.8217 38.4954 83.6753 38.5539C82.7384 38.5246 82.1528 38.4954 81.4501 38.5246C80.7182 38.5246 80.1326 38.5539 79.6056 38.6125C79.4592 38.5539 79.4299 38.2026 79.547 38.1147L79.9277 38.0562C80.6596 37.9391 80.6889 37.7341 80.6889 36.2995L80.6303 32.7276ZM89.648 38.6417C87.9498 38.6417 86.8958 38.1147 86.5152 37.9098C86.281 37.4706 86.0175 36.036 85.9589 35.0991C86.0468 34.9527 86.3688 34.9234 86.4567 35.0405C86.7495 36.0653 87.5985 38.0562 89.9115 38.0562C91.6096 38.0562 92.4294 36.9436 92.4294 35.7432C92.4294 34.8649 92.2537 33.8694 90.7898 32.9325L88.8867 31.6736C87.8913 31.0002 86.7202 29.8583 86.7202 28.2188C86.7202 26.3157 88.2133 24.764 90.8191 24.764C91.4339 24.764 92.1659 24.8811 92.6929 25.0275C92.9564 25.1153 93.2492 25.1446 93.3956 25.1446C93.5712 25.6423 93.7469 26.7549 93.7469 27.6039C93.6591 27.721 93.337 27.7796 93.2492 27.6625C92.9857 26.6963 92.4294 25.3788 90.497 25.3788C88.5354 25.3788 88.0962 26.6963 88.0962 27.6039C88.0962 28.775 89.0624 29.6241 89.8237 30.0926L91.4339 31.088C92.6929 31.8785 93.9518 33.0496 93.9518 34.9527C93.9518 37.1486 92.283 38.6417 89.648 38.6417ZM101.886 30.4439C102.033 30.5903 102.179 30.9123 102.179 31.2637C102.179 31.615 101.974 31.9956 101.74 31.9956C101.652 31.9956 101.535 31.9664 101.447 31.8492C101.008 31.293 100.247 30.7952 99.4268 30.7952C98.0215 30.7952 96.6454 31.9078 96.6454 34.0451C96.6454 35.6261 97.7287 37.4999 99.8953 37.4999C101.066 37.4999 101.681 36.9729 102.12 36.2995C102.296 36.2702 102.472 36.3873 102.472 36.5923C101.798 38.0855 100.276 38.6417 99.1048 38.6417C98.0508 38.6417 97.0553 38.2904 96.3526 37.617C95.65 36.9436 95.1815 35.9482 95.1815 34.6307C95.1815 32.4641 96.704 30.1218 100.071 30.1218C100.569 30.0926 101.33 30.2097 101.886 30.4439ZM106.805 30.7074C105.487 30.7074 104.492 31.9664 104.492 34.1915C104.492 36.036 105.312 37.9976 107.098 37.9976C108.884 37.9976 109.411 36.1531 109.411 34.6014C109.411 32.874 108.708 30.7074 106.805 30.7074ZM111.138 34.2793C111.138 36.7972 109.411 38.6125 106.893 38.6125C104.58 38.6125 102.765 36.9729 102.765 34.455C102.765 31.9078 104.668 30.0926 107.068 30.0926C109.294 30.0926 111.138 31.7907 111.138 34.2793ZM114.973 31.2344C114.622 31.2344 114.622 31.293 114.622 31.7321V35.4797C114.622 36.6508 114.769 37.7048 116.086 37.7048C116.291 37.7048 116.467 37.6756 116.642 37.617C116.818 37.5585 117.081 37.3242 117.14 37.3242C117.286 37.3242 117.374 37.5585 117.345 37.6756C116.994 38.0855 116.262 38.6125 115.237 38.6125C113.51 38.6125 113.129 37.6463 113.129 36.4459V31.82C113.129 31.2637 113.1 31.2344 112.719 31.2344H112.163C112.046 31.1466 112.016 30.9416 112.104 30.8245C112.69 30.6488 113.188 30.3853 113.392 30.2097C113.656 29.9754 114.037 29.4192 114.242 29.0093C114.329 28.98 114.593 28.98 114.651 29.0971V30.0047C114.651 30.3561 114.681 30.3853 115.003 30.3853H117.228C117.462 30.561 117.433 31.1173 117.257 31.2344H114.973V31.2344ZM121.063 31.2344C120.712 31.2344 120.712 31.293 120.712 31.7321V35.4797C120.712 36.6508 120.858 37.7048 122.176 37.7048C122.381 37.7048 122.556 37.6756 122.732 37.617C122.908 37.5585 123.171 37.3242 123.23 37.3242C123.376 37.3242 123.464 37.5585 123.435 37.6756C123.083 38.0855 122.352 38.6125 121.327 38.6125C119.599 38.6125 119.219 37.6463 119.219 36.4459V31.82C119.219 31.2637 119.19 31.2344 118.809 31.2344H118.253C118.136 31.1466 118.106 30.9416 118.194 30.8245C118.78 30.6488 119.277 30.3853 119.482 30.2097C119.746 29.9754 120.126 29.4192 120.331 29.0093C120.419 28.98 120.683 28.98 120.741 29.0971V30.0047C120.741 30.3561 120.771 30.3853 121.093 30.3853H123.318C123.552 30.561 123.523 31.1173 123.347 31.2344H121.063V31.2344ZM128.002 32.0835C127.182 32.2591 126.802 32.7569 126.802 33.723C126.802 35.8018 128.529 37.617 130.491 37.617C131.223 37.617 131.691 37.4706 132.54 37.0607C132.189 36.6508 132.043 36.4752 131.662 35.9189L131.223 35.304C130.11 33.6938 129.232 33.0204 128.441 32.4348L128.002 32.0835ZM126.773 29.9169C126.773 28.5115 127.885 27.4283 129.29 27.4283C130.227 27.4283 131.164 27.9845 131.164 28.9214C131.164 29.9462 130.169 30.3561 129.788 30.3561C129.7 30.3561 129.408 30.3268 129.612 30.034C129.642 29.9754 129.935 29.6534 129.788 29.1264C129.671 28.7458 129.29 28.3944 128.705 28.3359C127.973 28.2773 127.417 28.775 127.417 29.4192C127.417 30.0926 127.827 30.5024 129.203 31.2637C130.989 32.2299 132.511 33.0496 133.829 35.7432C134.297 35.1869 134.502 34.5721 134.502 33.8401C134.502 33.3424 134.385 32.9325 134.063 32.4934C133.829 32.1713 133.506 32.1127 133.331 32.0835C133.126 32.0542 132.775 32.0249 132.335 32.4055C132.277 32.4641 132.189 32.5226 132.072 32.4641C131.925 32.4055 131.925 32.2006 131.955 31.9956C132.043 31.3222 132.745 30.7952 133.741 30.7952C134.004 30.7952 134.414 30.8538 134.765 30.9416C135.175 31.0295 135.38 31.0587 135.527 31.0587C135.761 31.0587 135.878 31.0295 135.995 30.8538C135.995 30.8538 136.054 30.7659 136.112 30.7659C136.288 30.7659 136.346 30.9123 136.346 30.9123C136.346 31.6736 135.907 32.1127 134.941 32.3762C135.175 32.8154 135.234 33.1667 135.234 33.6645C135.234 34.6599 134.883 35.4504 134.151 36.2995C134.765 37.4121 135.351 37.822 136.317 37.822C136.522 37.822 136.669 37.7927 136.844 37.7341C137.049 37.6756 137.108 37.6463 137.196 37.6463C137.283 37.6463 137.342 37.6756 137.342 37.7927C137.342 38.1733 136.493 38.4661 135.41 38.4661C134.385 38.4661 133.858 38.2318 132.95 37.4706C131.603 38.2318 130.754 38.4953 129.583 38.4953C127.153 38.4953 125.25 36.9143 125.25 34.8649C125.25 32.7276 126.86 31.9663 127.563 31.6443C126.977 31.0295 126.773 30.561 126.773 29.9169ZM153.913 26.9598C153.913 25.6716 153.825 25.5252 153.533 25.613L153.093 25.1446C153.006 25.086 152.332 24.9982 152.596 24.9982C154.206 24.9982 154.587 24.2955 155.289 23.8856C155.377 23.8271 155.494 23.8856 155.494 24.0027C155.465 24.6176 155.436 25.613 155.436 26.4914V30.7367C155.436 30.9123 155.465 31.088 155.524 31.1173C156.256 30.561 157.222 30.0633 158.246 30.0633C160.149 30.0633 160.852 31.2637 160.852 32.669V36.0653C160.852 37.5292 160.881 37.7341 161.613 37.822L162.17 37.8805C162.316 37.9684 162.258 38.3197 162.14 38.3782C161.408 38.349 160.823 38.3197 160.12 38.3197C159.388 38.3197 158.803 38.349 158.246 38.3782C158.1 38.3197 158.071 37.9684 158.217 37.8805L158.627 37.822C159.388 37.7048 159.388 37.5292 159.388 36.0653V33.196C159.388 31.9078 158.773 31.0295 157.485 31.0295C156.812 31.0295 156.285 31.2637 155.904 31.5857C155.553 31.8785 155.494 31.9956 155.494 32.6983V36.0653C155.494 37.5292 155.524 37.7048 156.256 37.822L156.665 37.8805C156.812 37.9684 156.753 38.3197 156.636 38.3782C156.021 38.349 155.436 38.3197 154.733 38.3197C154.001 38.3197 153.416 38.349 152.771 38.3782C152.625 38.3197 152.596 37.9684 152.742 37.8805L153.24 37.822C153.972 37.7341 154.001 37.5292 154.001 36.0653V26.9598H153.913ZM165.683 27.4283C165.683 28.1602 165.185 28.4823 164.6 28.4823C163.985 28.4823 163.575 28.0138 163.575 27.4868C163.575 26.8134 164.073 26.4035 164.658 26.4035C165.273 26.4035 165.683 26.872 165.683 27.4283ZM164.014 32.5519C164.014 31.7614 164.014 31.6736 163.458 31.293L163.282 31.1758C163.194 31.088 163.194 30.8831 163.312 30.8245C163.78 30.6488 164.922 30.1511 165.39 29.8291C165.478 29.8291 165.566 29.8583 165.595 29.9462C165.566 30.6488 165.507 31.615 165.507 32.4348V36.0653C165.507 37.5292 165.537 37.7048 166.269 37.822L166.678 37.8805C166.825 37.9684 166.766 38.3197 166.649 38.3782C166.034 38.349 165.449 38.3197 164.746 38.3197C164.014 38.3197 163.429 38.349 162.843 38.3782C162.697 38.3197 162.667 37.9684 162.814 37.8805L163.224 37.822C163.956 37.7341 163.985 37.5292 163.985 36.0653V32.5519H164.014ZM170.338 31.2344C169.987 31.2344 169.987 31.293 169.987 31.7321V35.4797C169.987 36.6508 170.133 37.7048 171.451 37.7048C171.656 37.7048 171.831 37.6756 172.007 37.617C172.183 37.5585 172.446 37.3242 172.505 37.3242C172.651 37.3242 172.739 37.5585 172.71 37.6756C172.358 38.0855 171.626 38.6125 170.602 38.6125C168.874 38.6125 168.494 37.6463 168.494 36.4459V31.82C168.494 31.2637 168.464 31.2344 168.084 31.2344H167.528C167.41 31.1466 167.381 30.9416 167.469 30.8245C168.055 30.6488 168.552 30.3853 168.757 30.2097C169.021 29.9754 169.401 29.4192 169.606 29.0093C169.694 28.98 169.958 28.98 170.016 29.0971V30.0047C170.016 30.3561 170.045 30.3853 170.368 30.3853H172.593C172.827 30.561 172.798 31.1173 172.622 31.2344H170.338V31.2344ZM176.252 32.5519C177.746 32.5519 178.185 32.4641 178.36 32.347C178.419 32.3177 178.478 32.2299 178.478 31.9663C178.478 31.4101 178.097 30.7074 176.926 30.7074C175.725 30.7074 174.701 31.7907 174.701 32.4641C174.701 32.4934 174.701 32.5519 174.847 32.5519H176.252ZM175.023 33.1668C174.496 33.1668 174.466 33.196 174.466 33.723C174.466 35.7725 175.667 37.4999 177.804 37.4999C178.478 37.4999 179.034 37.295 179.649 36.5044C179.854 36.4459 180 36.563 180 36.7387C179.327 38.1147 177.892 38.6125 176.838 38.6125C175.52 38.6125 174.496 38.0562 173.91 37.295C173.295 36.5044 173.061 35.5675 173.061 34.6892C173.061 32.2006 174.701 30.1218 177.101 30.1218C178.829 30.1218 179.971 31.3222 179.971 32.5226C179.971 32.8154 179.941 32.9618 179.883 33.0496C179.824 33.1667 179.532 33.196 178.682 33.196H175.023V33.1668ZM40.9879 45.1122V47.1031H43.0666V45.1122H44.2085V50.2651H43.0666V48.04H40.9879V50.2651H39.846V45.1122H40.9879ZM52.8455 45.1122V46.0784H50.1226V47.1909H52.6113V48.0693H50.1226V49.3282H52.904V50.2944H48.9808V45.1415H52.8455V45.1122ZM60.0772 48.2449L59.433 46.3419L58.7596 48.2449H60.0772ZM60.0186 45.1122L61.951 50.2651H60.7798L60.3992 49.1233H58.4669L58.057 50.2651H56.9151L58.8475 45.1122H60.0186ZM67.3088 45.1122V49.299H69.8267V50.2651H66.167V45.1122H67.3088ZM73.8378 46.0491V45.0829H78.0539V46.0491H76.5021V50.2358H75.3603V46.0491H73.8378ZM83.5581 45.1122V47.1031H85.6369V45.1122H86.7787V50.2651H85.6369V48.04H83.5581V50.2651H82.4163V45.1122H83.5581ZM14.2863 54.2762V44.351L19.4978 39.1395V54.2762H14.2863ZM35.3079 39.1395H20.1712L25.3827 44.351H35.3079V39.1395V39.1395ZM4.36105 38.4661H19.4978L14.2863 33.2546H4.36105V38.4661ZM20.1712 23.3V38.4368L25.3827 33.2253V23.3H20.1712ZM20.8446 50.7629C20.9324 50.7629 21.0203 50.7628 21.0203 50.6457C21.0203 50.5579 20.9324 50.5286 20.8446 50.5286H20.6982V50.7629H20.8446V50.7629ZM20.7275 51.202H20.6104V50.4115H20.9031C21.0788 50.4115 21.1666 50.4701 21.1666 50.6165C21.1666 50.7629 21.0788 50.8214 20.9617 50.8214L21.1666 51.1727H21.0495L20.8446 50.8507H20.6982V51.202H20.7275ZM20.8446 51.3777C21.1374 51.3777 21.3716 51.1435 21.3716 50.8214C21.3716 50.4993 21.1374 50.2651 20.8446 50.2651C20.5518 50.2651 20.2883 50.4993 20.2883 50.8214C20.3176 51.1435 20.5518 51.3777 20.8446 51.3777ZM20.1712 50.8214C20.1712 50.4408 20.4933 50.148 20.8446 50.148C21.1959 50.148 21.518 50.4408 21.518 50.8214C21.518 51.202 21.1959 51.4948 20.8446 51.4948C20.4933 51.4655 20.1712 51.202 20.1712 50.8214Z" fill="white"/>
</svg>
