<svg width="72" height="72" viewBox="0 0 72 72" fill="none" xmlns="http://www.w3.org/2000/svg">
<path d="M52 35C52 42.1875 44.8125 48 36 48C33.625 48 31.4375 47.625 29.4375 46.9375C28.75 47.4375 27.5 48.1875 26.0625 48.8125C24.5625 49.5 22.75 50 21 50C20.5625 50 20.1875 49.8125 20.0625 49.4375C19.875 49.0625 20 48.625 20.25 48.3125C20.3125 48.3125 20.3125 48.25 20.375 48.1875C20.4375 48.125 20.5625 48 20.6875 47.875C20.9375 47.5625 21.25 47.0625 21.625 46.5C22.25 45.5 22.8125 44.125 22.9375 42.5625C21.0625 40.4375 20 37.875 20 35C20 27.875 27.125 22 36 22C44.8125 22 52 27.875 52 35Z" fill="url(#paint0_linear_4016_1656)"/>
<defs>
<linearGradient id="paint0_linear_4016_1656" x1="0" y1="0" x2="72" y2="72" gradientUnits="userSpaceOnUse">
<stop stop-color="#5C6EF8"/>
<stop offset="1" stop-color="#1B89DC"/>
</linearGradient>
</defs>
</svg>
